<svg width="40" height="40" viewBox="0 0 40 40" fill="none" xmlns="http://www.w3.org/2000/svg">
<g clip-path="url(#clip0_5_63)">
<path d="M19.3519 12.2039C19.3519 11.8459 19.6421 11.5558 20 11.5558C20.3579 11.5558 20.6481 11.8459 20.6481 12.2039V13.5001H21.9443C22.3022 13.5001 22.5924 13.7902 22.5924 14.1482C22.5924 14.5061 22.3022 14.7963 21.9443 14.7963H20.6481V16.0924C20.6481 16.4504 20.3579 16.7405 20 16.7405C19.6421 16.7405 19.3519 16.4504 19.3519 16.0924V14.7963H18.0557C17.6978 14.7963 17.4076 14.5061 17.4076 14.1482C17.4076 13.7902 17.6978 13.5001 18.0557 13.5001H19.3519V12.2039Z" fill="#AA0000"/>
<path fill-rule="evenodd" clip-rule="evenodd" d="M19.0775 6.07463C19.5775 5.53626 20.4222 5.53623 20.9221 6.07459C21.5338 6.7332 22.6627 8.01094 23.6427 9.46807C24.6205 10.922 25.5287 12.578 25.5126 14.3767C25.5111 14.5358 25.5027 14.7591 25.4749 15.0254C25.4198 15.5545 25.2867 16.2726 24.9684 17.0003C24.6486 17.7312 24.1354 18.4854 23.3168 19.0548C22.4944 19.6268 21.4089 19.981 19.9998 19.981C18.5907 19.981 17.5052 19.6268 16.6829 19.0548C15.8643 18.4854 15.3512 17.7311 15.0315 17.0002C14.7132 16.2726 14.5801 15.5545 14.525 15.0254C14.4973 14.759 14.4888 14.5357 14.4874 14.3766C14.4715 12.578 15.3794 10.922 16.3572 9.4681C17.3371 8.01099 18.4659 6.73325 19.0775 6.07463ZM19.9999 6.9863C19.4036 7.63025 18.3446 8.83552 17.4328 10.1914C16.607 11.4193 15.77 12.8394 15.7836 14.3652C15.7847 14.4896 15.7914 14.6714 15.8143 14.8912C15.8604 15.3342 15.9703 15.9122 16.219 16.4807C16.4663 17.0461 16.8443 17.5881 17.4231 17.9907C17.9982 18.3909 18.8164 18.6848 19.9998 18.6848C21.1832 18.6848 22.0014 18.3909 22.5766 17.9907C23.1555 17.5881 23.5335 17.0461 23.7808 16.4807C24.0296 15.9122 24.1396 15.3341 24.1857 14.8911C24.2086 14.6714 24.2153 14.4895 24.2164 14.3651C24.23 12.8393 23.3928 11.4192 22.5671 10.1914C21.6552 8.83551 20.5961 7.63024 19.9999 6.9863Z" fill="#AA0000"/>
</g>
<path fill-rule="evenodd" clip-rule="evenodd" d="M16.0316 21.0956C15.7969 21.1788 15.4148 21.4097 15.1824 21.6085C14.9501 21.8074 14.6343 22.2271 14.4807 22.541C14.236 23.041 14.2078 23.2004 14.2526 23.8268C14.2897 24.3464 14.3785 24.6692 14.5773 25.0085C14.7277 25.2651 15.0233 25.6173 15.234 25.791C15.4447 25.9648 15.8264 26.1782 16.0821 26.2653C16.4367 26.3861 17.0276 26.4237 18.5708 26.4237C20.5946 26.4237 20.5946 26.4237 20.2374 26.6951C20.041 26.8443 19.6003 27.0951 19.2581 27.2525C18.9159 27.4099 18.3559 27.6207 18.0137 27.7212C17.5952 27.8439 17.0352 27.9041 16.3028 27.9047C15.3747 27.9055 14.8049 27.8195 12.4433 27.3216C10.9194 27.0005 9.34918 26.6875 8.95379 26.6261C8.42919 26.5447 8.05848 26.5466 7.58221 26.633C7.22332 26.698 6.74042 26.8476 6.50918 26.9654C6.27794 27.0831 5.93408 27.2974 5.74494 27.4413C5.55581 27.5853 5.31088 27.88 5.20055 28.0962C5.09021 28.3124 5 28.6797 5 28.9124C5 29.1451 5.09395 29.5195 5.20874 29.7446C5.32353 29.9696 5.53082 30.228 5.66935 30.3188C5.80789 30.4096 7.85493 31.3633 10.2182 32.4383C12.5817 33.5134 14.7626 34.4663 15.065 34.5561C15.3672 34.6459 15.9211 34.7192 16.2957 34.719C16.7394 34.7189 18.6026 34.3922 21.6431 33.7813C24.7418 33.1587 26.5433 32.8437 27.0057 32.8434C27.3887 32.8431 27.8856 32.8923 28.1099 32.9527C28.3341 33.0131 28.7293 33.1561 28.9881 33.2706C29.2468 33.3851 29.8699 33.8038 30.3726 34.2012C31.0056 34.7014 31.3759 34.924 31.5765 34.9252C31.7477 34.9261 31.9708 34.8224 32.1209 34.6721C32.2609 34.5322 32.3755 34.3285 32.3755 34.2195C32.3755 34.1105 32.2806 33.9008 32.1646 33.7533C32.0485 33.6057 31.5702 33.1953 31.1017 32.8412C30.6331 32.487 29.9501 32.0606 29.5837 31.8936C29.2173 31.7267 28.6107 31.5251 28.2357 31.4456C27.8606 31.366 27.2573 31.3002 26.8952 31.2992C26.4687 31.298 24.4964 31.6483 21.2966 32.2934C16.5694 33.2465 16.3326 33.2841 15.8 33.1649C15.4939 33.0964 13.3237 32.1777 10.9773 31.1232C8.63078 30.0687 6.64097 29.1371 6.55543 29.053C6.41751 28.9173 6.43742 28.8662 6.7314 28.6015C6.91369 28.4374 7.24033 28.2537 7.45726 28.1935C7.67419 28.1332 8.01701 28.0838 8.21911 28.0835C8.42121 28.0832 10.1011 28.3891 11.9521 28.7633C15.2212 29.4241 15.3533 29.4423 16.562 29.3976C17.3912 29.367 18.0787 29.2768 18.6229 29.1272C19.072 29.0038 19.6787 28.7831 19.971 28.6369C20.2633 28.4907 20.741 28.1929 21.0325 27.9751C21.3241 27.7573 21.7385 27.3398 21.9533 27.047C22.2312 26.6684 22.3469 26.402 22.3542 26.1243C22.3599 25.9065 22.2816 25.6073 22.1772 25.448C22.0741 25.2906 21.8317 25.096 21.6383 25.0151C21.3697 24.9029 20.7253 24.8683 18.9064 24.8683C16.526 24.8683 16.526 24.8683 16.2078 24.6005C16.0327 24.4531 15.8519 24.1875 15.806 24.0102C15.7599 23.8329 15.7414 23.5581 15.7647 23.3996C15.7879 23.241 15.9134 22.9965 16.0433 22.8562C16.1733 22.716 16.4762 22.5483 16.7165 22.4836C17.0234 22.401 18.6996 22.3764 22.3535 22.401C27.5108 22.4357 27.5587 22.438 28.1758 22.6775C28.7469 22.8992 29.0111 23.1357 31.3904 25.5542C33.3082 27.5038 34.0453 28.1891 34.2229 28.188C34.3549 28.1872 34.5484 28.1408 34.6527 28.085C34.757 28.0292 34.8901 27.8464 34.9486 27.6788C35.0317 27.4403 35.0172 27.3064 34.8817 27.0617C34.7865 26.8898 33.6354 25.6593 32.3236 24.3272C30.4258 22.3999 29.8096 21.8377 29.3068 21.5747C28.9594 21.3929 28.3761 21.1736 28.0107 21.0876C27.4602 20.9579 26.4125 20.9321 21.9023 20.9376C17.4073 20.9431 16.3839 20.9706 16.0316 21.0956Z" fill="#AA0000"/>
<defs>
<clipPath id="clip0_5_63">
<rect width="15.5543" height="15.5543" fill="white" transform="translate(12.2229 5.07483)"/>
</clipPath>
</defs>
</svg>
