<svg width="30" height="30" viewBox="0 0 30 30" fill="none" xmlns="http://www.w3.org/2000/svg">
<path d="M14.3519 7.12905C14.3519 6.77111 14.6421 6.48096 15 6.48096C15.3579 6.48096 15.6481 6.77111 15.6481 7.12905V8.42524H16.9443C17.3022 8.42524 17.5924 8.71539 17.5924 9.07333C17.5924 9.43127 17.3022 9.72143 16.9443 9.72143H15.6481V11.0176C15.6481 11.3756 15.3579 11.6657 15 11.6657C14.6421 11.6657 14.3519 11.3756 14.3519 11.0176V9.72143H13.0557C12.6978 9.72143 12.4076 9.43127 12.4076 9.07333C12.4076 8.71539 12.6978 8.42524 13.0557 8.42524H14.3519V7.12905Z" fill="#AA0000"/>
<path fill-rule="evenodd" clip-rule="evenodd" d="M14.0775 0.999804C14.5775 0.461427 15.4222 0.461405 15.9221 0.999765C16.5338 1.65837 17.6627 2.93611 18.6427 4.39324C19.6205 5.84713 20.5287 7.50321 20.5125 9.30187C20.5111 9.46097 20.5027 9.68424 20.4749 9.95054C20.4198 10.4796 20.2867 11.1978 19.9683 11.9255C19.6486 12.6563 19.1354 13.4105 18.3168 13.9799C17.4944 14.552 16.4089 14.9061 14.9998 14.9061C13.5907 14.9061 12.5052 14.552 11.6829 13.9799C10.8643 13.4105 10.3512 12.6563 10.0315 11.9254C9.71315 11.1977 9.58011 10.4796 9.52502 9.95054C9.4973 9.68418 9.48883 9.46091 9.48742 9.3018C9.47146 7.50315 10.3794 5.84722 11.3572 4.39328C12.3371 2.93616 13.4659 1.65842 14.0775 0.999804ZM14.9999 1.91147C14.4036 2.55542 13.3446 3.76069 12.4328 5.11661C11.607 6.34445 10.77 7.76452 10.7836 9.29033C10.7847 9.41477 10.7914 9.59656 10.8142 9.81632C10.8604 10.2594 10.9703 10.8374 11.219 11.4059C11.4663 11.9712 11.8443 12.5132 12.4231 12.9159C12.9982 13.316 13.8164 13.6099 14.9998 13.6099C16.1832 13.6099 17.0014 13.316 17.5766 12.9159C18.1555 12.5132 18.5335 11.9712 18.7808 11.4059C19.0296 10.8374 19.1396 10.2593 19.1857 9.81626C19.2086 9.59656 19.2153 9.4147 19.2164 9.29027C19.23 7.76446 18.3928 6.34437 17.5671 5.11661C16.6552 3.76068 15.5961 2.55541 14.9999 1.91147Z" fill="#AA0000"/>
<path fill-rule="evenodd" clip-rule="evenodd" d="M11.0316 16.0207C10.7969 16.104 10.4148 16.3348 10.1824 16.5337C9.95006 16.7326 9.6343 17.1523 9.48073 17.4661C9.23601 17.9662 9.20781 18.1255 9.2526 18.752C9.28973 19.2716 9.37849 19.5944 9.57727 19.9337C9.72773 20.1903 10.0233 20.5425 10.234 20.7161C10.4447 20.8899 10.8264 21.1033 11.0821 21.1904C11.4367 21.3113 12.0276 21.3489 13.5708 21.3489C15.5946 21.3489 15.5946 21.3489 15.2374 21.6203C15.041 21.7695 14.6003 22.0203 14.2581 22.1776C13.9159 22.335 13.3559 22.5458 13.0137 22.6463C12.5952 22.7691 12.0352 22.8292 11.3028 22.8299C10.3747 22.8307 9.80488 22.7446 7.44333 22.2468C5.91943 21.9256 4.34918 21.6127 3.95379 21.5513C3.42919 21.4699 3.05848 21.4718 2.58221 21.5581C2.22332 21.6232 1.74042 21.7728 1.50918 21.8906C1.27794 22.0083 0.934085 22.2225 0.744945 22.3665C0.555805 22.5105 0.310877 22.8052 0.200546 23.0214C0.0902145 23.2376 0 23.6049 0 23.8376C0 24.0703 0.0939477 24.4447 0.208738 24.6697C0.323529 24.8947 0.530815 25.1532 0.669352 25.244C0.807888 25.3347 2.85493 26.2885 5.21824 27.3635C7.58166 28.4385 9.76258 29.3915 10.065 29.4813C10.3672 29.5711 10.9211 29.6444 11.2957 29.6442C11.7394 29.6441 13.6026 29.3173 16.6431 28.7065C19.7418 28.0839 21.5433 27.7689 22.0057 27.7685C22.3887 27.7682 22.8856 27.8175 23.1099 27.8778C23.3341 27.9383 23.7293 28.0813 23.9881 28.1958C24.2468 28.3103 24.8699 28.729 25.3726 29.1263C26.0056 29.6266 26.3759 29.8492 26.5765 29.8503C26.7477 29.8513 26.9708 29.7476 27.1209 29.5973C27.2609 29.4573 27.3755 29.2537 27.3755 29.1447C27.3755 29.0357 27.2806 28.8259 27.1646 28.6785C27.0485 28.5309 26.5702 28.1205 26.1017 27.7664C25.6331 27.4121 24.9501 26.9858 24.5837 26.8188C24.2173 26.6519 23.6107 26.4503 23.2357 26.3707C22.8606 26.2912 22.2573 26.2254 21.8952 26.2243C21.4687 26.2232 19.4964 26.5735 16.2966 27.2185C11.5694 28.1717 11.3326 28.2093 10.8 28.0901C10.4939 28.0216 8.3237 27.1028 5.97729 26.0484C3.63078 24.9939 1.64097 24.0623 1.55543 23.9782C1.41751 23.8424 1.43742 23.7913 1.7314 23.5267C1.91369 23.3625 2.24033 23.1789 2.45726 23.1187C2.67419 23.0584 3.01701 23.0089 3.21911 23.0086C3.42121 23.0083 5.10107 23.3142 6.95213 23.6885C10.2212 24.3493 10.3533 24.3675 11.562 24.3228C12.3912 24.2922 13.0787 24.202 13.6229 24.0523C14.072 23.9289 14.6787 23.7083 14.971 23.5621C15.2633 23.4158 15.741 23.118 16.0325 22.9003C16.3241 22.6825 16.7385 22.2649 16.9533 21.9722C17.2312 21.5936 17.3469 21.3272 17.3542 21.0494C17.3599 20.8317 17.2816 20.5325 17.1772 20.3731C17.0741 20.2158 16.8317 20.0212 16.6383 19.9403C16.3697 19.8281 15.7253 19.7935 13.9064 19.7935C11.526 19.7935 11.526 19.7935 11.2078 19.5256C11.0327 19.3783 10.8519 19.1127 10.806 18.9354C10.7599 18.7581 10.7414 18.4833 10.7647 18.3247C10.7879 18.1662 10.9134 17.9217 11.0433 17.7814C11.1733 17.6412 11.4762 17.4735 11.7165 17.4088C12.0234 17.3261 13.6996 17.3016 17.3535 17.3261C22.5108 17.3609 22.5587 17.3632 23.1758 17.6027C23.7469 17.8244 24.0111 18.0608 26.3904 20.4794C28.3082 22.429 29.0453 23.1143 29.2229 23.1132C29.3549 23.1123 29.5484 23.066 29.6527 23.0102C29.757 22.9544 29.8901 22.7716 29.9486 22.604C30.0317 22.3655 30.0172 22.2315 29.8817 21.9868C29.7865 21.815 28.6354 20.5845 27.3236 19.2524C25.4258 17.3251 24.8096 16.7629 24.3068 16.4999C23.9594 16.318 23.3761 16.0988 23.0107 16.0127C22.4602 15.883 21.4125 15.8573 16.9023 15.8628C12.4073 15.8683 11.3839 15.8958 11.0316 16.0207Z" fill="#AA0000"/>
</svg>
